HIERARCHY
ROOT Hips
{
	OFFSET -14.64140 90.27770 -84.91600
	CHANNELS 6 Xposition Yposition Zposition Zrotation Xrotation Yrotation
	JOINT Spine
	{
		OFFSET 0.00000 13.20850 -1.60436
		CHANNELS 3 Zrotation Xrotation Yrotation
		JOINT Spine1
		{
			OFFSET 0.00000 8.61716 0.00000
			CHANNELS 3 Zrotation Xrotation Yrotation
			JOINT Spine2
			{
				OFFSET 0.00000 8.61717 0.00000
				CHANNELS 3 Zrotation Xrotation Yrotation
				JOINT Spine3
				{
					OFFSET 0.00000 8.61717 0.00000
					CHANNELS 3 Zrotation Xrotation Yrotation
					JOINT Neck
					{
						OFFSET 0.00000 11.07920 1.10792
						CHANNELS 3 Zrotation Xrotation Yrotation
						JOINT Neck1
						{
							OFFSET 0.00000 7.08032 0.00000
							CHANNELS 3 Zrotation Xrotation Yrotation
							JOINT Head
							{
								OFFSET 0.00000 7.08031 0.00000
								CHANNELS 3 Zrotation Xrotation Yrotation
								End site
								{
									OFFSET 0.00000 0.00000 0.00000
								}
							}
						}
					}
					JOINT RightShoulder
					{
						OFFSET -0.01000 7.91373 5.19711
						CHANNELS 3 Zrotation Xrotation Yrotation
						JOINT RightArm
						{
							OFFSET -18.41580 0.00000 0.00000
							CHANNELS 3 Zrotation Xrotation Yrotation
							JOINT RightForeArm
							{
								OFFSET -29.11090 0.00000 0.00000
								CHANNELS 3 Zrotation Xrotation Yrotation
								JOINT RightHand
								{
									OFFSET -24.65040 0.00000 0.00000
									CHANNELS 3 Zrotation Xrotation Yrotation
									JOINT RightHandThumb1
									{
										OFFSET -5.35114 -0.85590 3.97906
										CHANNELS 3 Zrotation Xrotation Yrotation
										JOINT RightHandThumb2
										{
											OFFSET -4.52789 0.00000 0.00000
											CHANNELS 3 Zrotation Xrotation Yrotation
											JOINT RightHandThumb3
											{
												OFFSET -2.46976 0.00000 0.00000
												CHANNELS 3 Zrotation Xrotation Yrotation
												End site
												{
													OFFSET 0.00000 0.00000 0.00000
												}
											}
										}
									}
									JOINT RightHandIndex1
									{
										OFFSET -14.26970 0.00000 2.88139
										CHANNELS 3 Zrotation Xrotation Yrotation
										JOINT RightHandIndex2
										{
											OFFSET -5.48836 0.00000 0.00000
											CHANNELS 3 Zrotation Xrotation Yrotation
											JOINT RightHandIndex3
											{
												OFFSET -3.01859 0.00000 0.00000
												CHANNELS 3 Zrotation Xrotation Yrotation
												End site
												{
													OFFSET 0.00000 0.00000 0.00000
												}
											}
										}
									}
									JOINT RightHandMiddle1
									{
										OFFSET -14.26970 0.00000 -0.09147
										CHANNELS 3 Zrotation Xrotation Yrotation
										JOINT RightHandMiddle2
										{
											OFFSET -6.17441 0.00000 0.00000
											CHANNELS 3 Zrotation Xrotation Yrotation
											JOINT RightHandMiddle3
											{
												OFFSET -3.56743 0.00000 0.00000
												CHANNELS 3 Zrotation Xrotation Yrotation
												End site
												{
													OFFSET 0.00000 0.00000 0.00000
												}
											}
										}
									}
									JOINT RightHandRing1
									{
										OFFSET -12.69180 0.00000 -3.06433
										CHANNELS 3 Zrotation Xrotation Yrotation
										JOINT RightHandRing2
										{
											OFFSET -5.62556 0.00000 0.00000
											CHANNELS 3 Zrotation Xrotation Yrotation
											JOINT RightHandRing3
											{
												OFFSET -3.56744 0.00000 0.00000
												CHANNELS 3 Zrotation Xrotation Yrotation
												End site
												{
													OFFSET 0.00000 0.00000 0.00000
												}
											}
										}
									}
									JOINT RightHandPinky1
									{
										OFFSET -11.11390 0.00000 -6.03719
										CHANNELS 3 Zrotation Xrotation Yrotation
										JOINT RightHandPinky2
										{
											OFFSET -4.52789 0.00000 0.00000
											CHANNELS 3 Zrotation Xrotation Yrotation
											JOINT RightHandPinky3
											{
												OFFSET -2.46976 0.00000 0.00000
												CHANNELS 3 Zrotation Xrotation Yrotation
												End site
												{
													OFFSET 0.00000 0.00000 0.00000
												}
											}
										}
									}
								}
							}
						}
					}
					JOINT LeftShoulder
					{
						OFFSET 0.01000 7.91373 5.19711
						CHANNELS 3 Zrotation Xrotation Yrotation
						JOINT LeftArm
						{
							OFFSET 18.41580 0.00000 0.00000
							CHANNELS 3 Zrotation Xrotation Yrotation
							JOINT LeftForeArm
							{
								OFFSET 29.11090 0.00000 0.00000
								CHANNELS 3 Zrotation Xrotation Yrotation
								JOINT LeftHand
								{
									OFFSET 24.65040 0.00000 0.00000
									CHANNELS 3 Zrotation Xrotation Yrotation
									JOINT LeftHandThumb1
									{
										OFFSET 5.35114 -0.85590 3.97906
										CHANNELS 3 Zrotation Xrotation Yrotation
										JOINT LeftHandThumb2
										{
											OFFSET 4.52789 0.00000 0.00000
											CHANNELS 3 Zrotation Xrotation Yrotation
											JOINT LeftHandThumb3
											{
												OFFSET 2.46977 0.00000 0.00000
												CHANNELS 3 Zrotation Xrotation Yrotation
												End site
												{
													OFFSET 0.00000 0.00000 0.00000
												}
											}
										}
									}
									JOINT LeftHandIndex1
									{
										OFFSET 14.26970 0.00000 2.88139
										CHANNELS 3 Zrotation Xrotation Yrotation
										JOINT LeftHandIndex2
										{
											OFFSET 5.48836 0.00000 0.00000
											CHANNELS 3 Zrotation Xrotation Yrotation
											JOINT LeftHandIndex3
											{
												OFFSET 3.01859 0.00000 0.00000
												CHANNELS 3 Zrotation Xrotation Yrotation
												End site
												{
													OFFSET 0.00000 0.00000 0.00000
												}
											}
										}
									}
									JOINT LeftHandMiddle1
									{
										OFFSET 14.26970 0.00000 -0.09147
										CHANNELS 3 Zrotation Xrotation Yrotation
										JOINT LeftHandMiddle2
										{
											OFFSET 6.17440 0.00000 0.00000
											CHANNELS 3 Zrotation Xrotation Yrotation
											JOINT LeftHandMiddle3
											{
												OFFSET 3.56744 0.00000 0.00000
												CHANNELS 3 Zrotation Xrotation Yrotation
												End site
												{
													OFFSET 0.00000 0.00000 0.00000
												}
											}
										}
									}
									JOINT LeftHandRing1
									{
										OFFSET 12.69180 0.00000 -3.06433
										CHANNELS 3 Zrotation Xrotation Yrotation
										JOINT LeftHandRing2
										{
											OFFSET 5.62556 0.00000 0.00000
											CHANNELS 3 Zrotation Xrotation Yrotation
											JOINT LeftHandRing3
											{
												OFFSET 3.56744 0.00000 0.00000
												CHANNELS 3 Zrotation Xrotation Yrotation
												End site
												{
													OFFSET 0.00000 0.00000 0.00000
												}
											}
										}
									}
									JOINT LeftHandPinky1
									{
										OFFSET 11.11390 0.00000 -6.03719
										CHANNELS 3 Zrotation Xrotation Yrotation
										JOINT LeftHandPinky2
										{
											OFFSET 4.52789 0.00000 0.00000
											CHANNELS 3 Zrotation Xrotation Yrotation
											JOINT LeftHandPinky3
											{
												OFFSET 2.46976 0.00000 0.00000
												CHANNELS 3 Zrotation Xrotation Yrotation
												End site
												{
													OFFSET 0.00000 0.00000 0.00000
												}
											}
										}
									}
								}
							}
						}
					}
					JOINT pCube4
					{
						OFFSET 0.00000 10.91090 1.10792
						CHANNELS 3 Zrotation Xrotation Yrotation
						End site
						{
							OFFSET 0.00000 0.00000 0.00000
						}
					}
				}
			}
		}
	}
	JOINT RightUpLeg
	{
		OFFSET -9.98441 0.00000 0.00000
		CHANNELS 3 Zrotation Xrotation Yrotation
		JOINT RightLeg
		{
			OFFSET 0.00000 -42.11790 0.00000
			CHANNELS 3 Zrotation Xrotation Yrotation
			JOINT RightFoot
			{
				OFFSET 0.00000 -45.00020 -0.00001
				CHANNELS 3 Zrotation Xrotation Yrotation
				JOINT RightForeFoot
				{
					OFFSET 0.00000 -3.74820 0.00000
					CHANNELS 3 Zrotation Xrotation Yrotation
					JOINT RightToeBase
					{
						OFFSET 0.00000 0.06325 14.43120
						CHANNELS 3 Zrotation Xrotation Yrotation
						End site
						{
							OFFSET 0.00000 0.00000 0.00000
						}
					}
				}
			}
		}
	}
	JOINT LeftUpLeg
	{
		OFFSET 9.98441 0.00000 0.00000
		CHANNELS 3 Zrotation Xrotation Yrotation
		JOINT LeftLeg
		{
			OFFSET 0.00000 -42.11800 0.00000
			CHANNELS 3 Zrotation Xrotation Yrotation
			JOINT LeftFoot
			{
				OFFSET 0.00000 -45.00070 0.00000
				CHANNELS 3 Zrotation Xrotation Yrotation
				JOINT LeftForeFoot
				{
					OFFSET 0.00000 -3.74824 0.00000
					CHANNELS 3 Zrotation Xrotation Yrotation
					JOINT LeftToeBase
					{
						OFFSET 0.00000 0.06325 14.43110
						CHANNELS 3 Zrotation Xrotation Yrotation
						End site
						{
							OFFSET 0.00000 0.00000 0.00000
						}
					}
				}
			}
		}
	}
}
MOTION
Frames: 4
Frame Time: 0.050000
-0.01960425070803315 0.008166450639355408 -0.036026567859133045 0.023284702864249666 0.00806592914867037 -0.017301197858519947 -3.4743230667710057 -0.6437466715114513 -0.6519406975133334 -1.1146762614996164 3.7874746809553232 0.42631613288525605 -1.368622924841808 -1.9252829371569689 -0.9519617772852453 0.1729806982016449 0.497148146100059 -0.8261829297295777 0.08030884810463285 12.490864017751258 0.3235496338474495 0.2729991549553843 -0.11498583117659666 -0.9264836775279418 0.3220878233959008 -14.951940946344472 -0.07799783589420023 -4.962796465178388 1.6404003768159838 -13.954224722170782 64.48941099526252 21.2945892036371 12.806162061612218 5.782635534310836 2.226016409086033 62.39071607139359 15.409526961237164 -0.22372400635890802 -2.5834271153321637 4.556353466884104 -0.12228028167971486 -1.583091606958349 0.028323988063349636 -0.0016193572184702938 -56.215722816820076 0.03410893857158962 -0.00314885443722783 -56.225516432962536 -38.725165315262394 0.010985129709394864 -0.0014118399421924747 0.022376020257661108 -0.034120682757676456 -0.02099644246456164 0.009896195987554453 0.010830355828427212 0.01381290209732938 -36.74042806347851 0.004459781198203837 -0.037881545476981804 -0.03508072954986003 -0.017005716145951 -0.04152410028682602 -0.020485271524701403 -0.008294352776943357 -0.01481426527576391 -19.80781786844144 -0.021594521701389934 0.022652061266513826 -0.006401216919615005 0.0025828947211198492 -0.025056012425628573 0.00769348673130406 0.024220445786256047 0.004667709068236971 24.09739428892745 -0.04874846545698913 0.013759530196328753 28.88846470878348 0.04006467686521676 -0.014747232080132549 28.843809231310846 -0.013005783044707075 -0.008431951211857346 5.380815690970593 1.1679223392130398 12.5499879621753 -70.15472325277483 28.04680129027095 -10.989810451824507 -44.803414988496435 2.9745337952307955 -80.31055401147286 -5.5894866131802985 0.6451310779343729 -0.6189594069216434 -0.49056114060636835 0.04162943226798496 -8.106661549030571 0.005868790049934795 0.045979830488154634 44.58001881648758 0.03529813701009008 -0.03821105852106478 44.60439955044716 12.495020091737876 0.04583278931267233 0.0050667574404140445 0.02532273490575686 -0.03921838457265917 0.01489864482440638 -0.025475970589607506 -0.037252827647212605 -0.0019236299531838446 11.113866847421463 0.019338361196660662 0.01807948657129462 0.009798469439896162 -0.04243960233193026 -0.024094304567378728 -0.003710350443851356 0.0011776412248247605 -0.010216643109922135 4.747088734433421 -0.00798537002659363 -0.004613078678607866 -0.03027524839900421 -0.02707806081342584 -0.019850346362275156 0.002147813987276626 -0.027011360685480424 -0.027817145783567646 -5.623159436184695 -0.017091215213342843 0.011086440555208157 -6.767080127029224 -0.017959093719690112 -0.012933732969560801 -6.731545401500122 0.019250274874577495 0.023770016732572674 0.00330747620906594 0.04241376167932058 6.197091141515884e-05 8.035533721902576 3.4599466340577 -19.226027694550602 0.013921188448528849 10.401253191079041 0.0009247474431583157 -5.611264008374991 -15.688024923019862 3.1767207840326135 0.04592718862138741 0.016145103949184406 0.0214359180307652 -0.0034836284142598217 4.6877645823137515 -0.009961114268767985 12.41299269291325 -8.283772276601697 6.89117054237993 -0.005233198681001124 46.3662113684624 0.0044947612679535984 -4.343975489926106 -14.755380823685915 -3.790500876467757 0.014179425298939632 -0.008882416078074091 0.04924547911648422 0.019747710877064034 -10.791885320999068 -0.036940579179613436 
-0.011845359422731697 -0.007913896424703037 0.006761187024338578 0.009909654470040136 -0.021421541997953892 0.04471089848040533 -3.420654283639518 -0.6774191282659969 -0.6578771296805926 -1.1154439069264546 3.751905860466105 0.3975661651387613 -1.3596302896817714 -1.9226768295107182 -0.8966072832430931 0.058697485473535684 0.436203800724143 -0.8021166504354854 -0.00010716858023716164 12.492027757297253 0.6810681751785519 0.23069603896390495 -0.08848041061649714 -0.15520513568850186 0.18987177037915232 -14.995949128072832 -0.057117036329085144 -4.876910603456626 1.5692944756409335 -13.914116027234613 65.0363105436703 22.022125668960943 12.011590770753637 5.955475633692386 2.546463309252651 62.70765643945852 15.592000876103377 -0.2494064652816307 -2.4879154690142324 4.558737518010882 -0.10077608618277883 -1.584178244084725 -0.04490569875482817 0.006223483656130131 -56.216268116712946 -0.048657791705295945 -0.043686205670987494 -56.264475480121455 -38.73180921291178 -0.020038122877215448 -0.0028896473246741044 0.03361986440377933 0.04718032948917754 0.002704525765027743 -0.04758909155624241 -0.004309072008294381 -0.028018005481445615 -36.659308534402825 -0.0418669110540334 0.02588133828113321 -0.00044029238347113354 0.019846254333963063 0.04073421565287558 -0.04191648296099576 0.000754498416200218 -0.02839457346663342 -19.72197400965853 0.011945496724001062 -0.03600474943351296 -0.023375188087496362 0.008746933399059558 -0.03568121234500486 -0.0030674767311098493 -0.010199747757626321 -0.003914521835753249 24.10416964219427 0.02706060769964745 0.04492479650730825 28.90421280131068 0.036638370928433715 -0.02075032979256925 28.892751383302755 0.03128409857245376 0.04074194413233603 5.624641279499332 1.2027990158380104 12.578164796490926 -70.46230598663125 28.125255210043562 -10.956013714597226 -44.332929734857736 3.121101654426227 -80.21305976605504 -6.199220417383242 0.5812371138377876 -0.6257441376142345 -0.43587051793182935 0.032745751957733556 -8.15549924693807 -0.0464372953218872 0.02063196339360123 44.579644494801244 -0.01093110656395385 -0.04144934017468451 44.57022917247099 12.456992951336423 -0.005995799577273687 0.03968482284202878 0.038219579998320874 -0.017260700970953557 -0.00839528673768696 -0.02233446515866091 0.003489011363290416 0.0033792366838925484 11.131001114116215 0.03512787276580697 0.017720865801314534 0.012212458450555238 -0.04007606379457983 0.032883522252493816 -0.02569443964760983 -0.028733152230434496 0.041637880031910456 4.774380338243989 0.03117843823558595 -0.040409146542622426 0.008169189673485547 -0.04579813272952063 0.048559072656435005 -0.04420512373746361 0.029020162520009423 0.00781768230553718 -5.645529054124379 -0.004620193409984583 0.01584666456304977 -6.768718182932181 0.021559356378058375 -0.009037335036857583 -6.751332607283892 -0.016665499033902936 -0.014075255546493895 -0.018116869143355734 0.04616250921726866 -0.0257058989827363 8.084245755297157 3.509963932329828 -19.200066440025488 0.019761612866426474 10.428875293619576 -0.022695442582794895 -5.61219156066308 -15.637291262528942 3.1545776440681617 -0.004570614222794087 -0.014496219505170094 0.028438435908130354 0.03558337056048365 4.738988900967912 0.0004331497499745276 12.469490170233186 -8.219073008339818 6.863866815910838 0.0064052972183989585 46.334361226769744 -0.041475469727227904 -4.370314256916132 -14.726278623044685 -3.8096702804487257 0.020619148003971348 0.03727988615091996 0.0015126057881661452 0.02739422082702895 -10.750381807261551 -0.04936291831473983 
-0.046046830665261024 -0.0009921398477643294 0.028887249129902422 -0.024219936900718563 0.006189489917443521 0.011857375527067336 -3.2571965626886086 -0.4714515496076327 -0.6830261905630598 -1.0810911386167252 3.7116942669634874 0.44036660446179965 -1.315651729501373 -1.8873087522294634 -1.0682617425124772 0.007040886818863369 0.45357574098987646 -0.8220334420206715 -0.1758191202944971 12.453243028636399 1.0892575090947763 0.20029966811213804 -0.09978892030605127 0.9354555853275208 0.06278637233035952 -15.084012574534684 0.054219054313676344 -4.556336760024688 1.57677069207538 -14.121651065063409 67.37738862181345 23.38506166330069 9.190896564732821 5.467765653645903 3.149311719336363 60.192480224364004 16.454721145028717 -0.23922851963572025 -2.688819904030161 4.53256391030363 -0.12555900413589816 -1.5967994379894515 0.03835275435524592 0.049096182760365426 -56.241536777849646 -0.03806444705193517 -0.035067865082342595 -56.21707847398484 -38.73550081837699 0.028350968379671306 0.03510371129782647 0.014802116065240192 0.034454125113351886 0.0324242801795957 -0.04044461569073958 0.03580509075478985 -0.03677188137926581 -36.71964019490973 -0.017684831828551992 0.009684122652702895 -0.009722384409029885 -0.04390024704821127 -0.01177198337166974 0.043175849740075295 -0.014327776271052414 -0.008390895551270467 -19.756879800753154 -0.00920772761638116 0.013334539981047364 -0.04509754553771008 -0.00850548192406636 -0.0192778649565005 -0.028651674852517992 -0.04452062337339397 0.006031815641175375 24.0216512541595 0.031660622399254025 0.039914543045029595 28.852805317939577 -0.0007284684149570405 -0.04059876778318044 28.820558659798156 -0.006151962585624947 0.017173708032735747 5.882215541453354 1.280864393047049 12.723367479800197 -71.10664162029195 28.214416130495316 -10.876603151930198 -43.59447844033048 3.7319669261344965 -80.05766541069147 -7.506668223294764 -0.2813241487256757 -0.17013044215538647 -0.4487029352979423 0.032457915390129065 -8.147418898262362 -0.033462499637362746 -0.040639604895945675 44.5474858318231 -0.044761936766447956 -0.005965305711197203 44.555515656218944 12.450327924801035 -0.009515185789660827 0.024644864571422693 0.0004868032147261058 -0.01524945242798238 -0.0010717867871684445 -0.043366648402443336 -0.03612402529888588 -0.020121673752791346 11.089422523837701 -0.01152019520742137 0.03111226916201222 0.031977968908702754 -0.03213476256847818 -0.02164060896790916 -0.044591063423476705 0.03892958447598404 -0.001700456549914073 4.737113123099541 0.03826008140595614 -0.0008112930397567813 0.041636156496182075 -0.01616645955755369 0.04715499898300295 0.024614894545930785 -8.522082359682316e-05 -0.02674682845925954 -5.601879334477698 0.00333683343631308 0.01812316958029568 -6.754647308476913 -0.01952889169698295 0.025119504510485956 -6.751280326573692 0.04232002041885204 -0.0039580087746293215 0.015732000735631555 -0.03113618284135052 0.007366378677086557 8.050028220871628 3.497481693238978 -19.213053623671264 -0.03524550674922535 10.412471399645357 0.01633652103045331 -5.633796509137955 -15.665628184907352 3.167887643694559 0.037251011305569404 -0.036155132673473915 0.01726555150269716 0.034578257647514835 4.747375215356551 -0.009986124215640818 12.420566102827584 -8.239065290263225 6.836855586423689 -0.04347353451787173 46.361787071688575 0.0017718839248012893 -4.313849749005179 -14.706206881434543 -3.8283869023118844 -0.003084615250445653 0.0127674820050254 0.03888876349220109 -0.03569688128659967 -10.739894776784016 0.028513360331000492 
0.03880502256627104 -0.03052803524647973 -0.03396683683225711 -0.019036711019324873 0.011669144001009619 -0.00933578931427358 -3.2178327846286967 -0.2444407398811037 -0.7356957021563514 -1.113093812205697 3.715589150789465 0.34881216412881666 -1.2442514906750808 -1.869455449446557 -1.233413316768142 -0.13264378490925802 0.4490185978500294 -0.8233225786388083 -0.43588015446215145 12.421875045896623 1.4525970816777634 0.1550329317938085 -0.16416776644075873 1.9964444059548747 -0.13935587029784277 -15.222635586661871 0.1849898074289355 -4.114943969416958 1.4934480594028647 -14.26362371946799 70.21810062583994 25.129025797350288 5.9210430471247495 4.8393950183966545 3.6887074955400903 56.169969551610194 18.034694477211207 -0.20312823757617288 -3.1215708390289043 4.520087388454661 -0.14672705406310016 -1.5872831855328509 0.024899354840756435 -0.005461909757178818 -56.21224653240607 0.008464479667080813 0.04890498656507761 -56.18551788834329 -38.7702625859298 -0.0013809680341275875 -0.034479139878773234 -0.04891748602196502 -0.0025228423460858505 0.011402889565329314 -0.042413765273451934 -0.02146314929648843 0.024654411874157497 -36.67915468083933 -0.0010267268094895686 -0.01719157981312142 0.023308582483328854 -0.03083000953348781 -0.0373409502532361 -0.03892832453474257 -0.04951422387915252 0.02070380228723718 -19.749157031646895 -0.015060150200314412 -0.03291911542244218 0.0028807148324339876 -0.04039641523325228 0.029279380726152698 -0.017640120343338526 0.0349074679327201 -0.04179216760841936 24.086505453065666 -0.031776961093708166 -0.043238886417831426 28.89077847780846 0.023893035311766796 0.0017872090107950577 28.91025464809483 -0.022080449085331837 -0.01104456631143541 6.127709405174272 1.3054728001891112 12.878741375345161 -71.63639201509005 28.091049954492902 -10.603927429379592 -42.655414524108004 4.7057600719330726 -79.18659653109496 -9.469454599805275 -1.4888581575430275 0.6007929102204452 -0.4955178101836432 0.07484389212137403 -8.10459551405406 0.029456349872607625 -0.02731982450914767 44.6151954171982 -0.0256984200620756 -0.04632461501989107 44.58325117038928 12.445850959014079 -0.037017718266415756 -0.004669445566168158 0.03583516426663537 -0.01854060687401806 0.005732619637629611 -0.0440944711451768 -0.012107510193798618 -0.045271352527628705 11.103835111317588 0.01960009758060643 0.04674271510224558 -0.015259048367777332 -0.020434285010958057 -0.03188227788845615 -0.02928634158038483 -0.046600949681128725 -0.01932602918436431 4.771214013055843 0.039916141750494114 -0.03203193640567287 0.04865159696501097 -0.03304026288494609 -0.008477874367604474 0.015079474464566431 0.026350866094761807 -0.04028423231848531 -5.58792154798742 -0.021174937113105648 -0.018610093758441925 -6.696633746606258 0.040312951757235094 0.001956952954157243 -6.676351309794218 -0.020573102491433074 0.03059557311273917 -0.03417734578346542 0.022405132518871638 0.010137724073578719 7.995489763265343 3.52438409241148 -19.255733446998907 -0.03525983883168787 10.411082292641726 0.053994458695905634 -5.58934463044481 -15.688747892393625 3.1730430047361704 0.011125517091590426 -0.022707401889515165 0.029220411142680647 0.027397253258680997 4.6818348223782715 -0.00491136631421946 12.45677340951302 -8.193692777738189 6.920090330304104 -0.046143913520118346 46.39611450761761 -0.03913893660141203 -4.338414599981647 -14.723840660008669 -3.8202724721088885 0.01461519321379548 -0.03585905109503604 0.003662867187467274 -0.005590137130959408 -10.723345266543799 0.005053047436014637 
